<svg xmlns="http://www.w3.org/2000/svg" xmlns:xlink="http://www.w3.org/1999/xlink" version="1.1" style="enable-background:new 0 0 48 48;" xml:space="preserve" width="48" height="48"><rect id="backgroundrect" width="100%" height="100%" x="0" y="0" fill="none" stroke="none"/>











<g class="currentLayer" style=""><title>Layer 1</title><polygon style="" points="39,39 5,39 5,5 34,5 39,10 " id="svg_1" class="selected" fill="#b80404" fill-opacity="1"/><path style="fill:#FFFFFF;" d="M36,36c0,0.553-0.447,1-1,1H9c-0.553,0-1-0.447-1-1V22c0-0.553,0.447-1,1-1h26c0.553,0,1,0.447,1,1  V36z" id="svg_2"/><g id="svg_3">
	<rect x="12" y="28" style="fill:#CFD8DC;" width="20" height="2" id="svg_4"/>
	<rect x="12" y="24" style="fill:#CFD8DC;" width="20" height="2" id="svg_5"/>
	<rect x="12" y="32" style="fill:#CFD8DC;" width="20" height="2" id="svg_6"/>
</g><path style="fill:#2980B9;" d="M8,5v9c0,1.104,0.896,2,2,2h13c1.104,0,2-0.896,2-2V5H8z" id="svg_7"/><path style="fill:#B0BEC5;" d="M14,5v9c0,1.104,0.896,2,2,2h13c1.104,0,2-0.896,2-2V5H14z" id="svg_8"/><rect x="23" y="7" style="fill:#263238;" width="4" height="7" id="svg_9"/><path style="fill:#E57373;" d="M39.858,42.678l2.819-2.82c0.43-0.429,0.43-1.126,0-1.555l-1.328-1.328l-4.375,4.376l1.328,1.327  C38.732,43.107,39.428,43.107,39.858,42.678" id="svg_10"/><rect x="29.22100067138672" y="25.729999542236328" transform="matrix(0.7071,-0.7071,0.7071,0.7071,-13.3864,32.3158) " style="fill:#FF9800;" width="6.188000202178955" height="13.17300033569336" id="svg_11"/><rect x="34.97100067138672" y="36.52199935913086" transform="matrix(0.7069,-0.7073,0.7073,0.7069,-15.7695,38.0817) " style="fill:#B0BEC5;" width="6.189000129699707" height="3.0940001010894775" id="svg_12"/><polygon style="fill:#FFC107;" points="29.848,25.473 24,24 25.472,29.848 " id="svg_13"/><polygon style="fill:#37474F;" points="26.956,24.744 24,24 24.744,26.956 " id="svg_14"/></g></svg>