<svg xmlns="http://www.w3.org/2000/svg" xmlns:xlink="http://www.w3.org/1999/xlink" version="1.1" style="enable-background:new 0 0 466.309 466.309;" xml:space="preserve" width="466.3089904785156" height="466.3089904785156"><rect id="backgroundrect" width="100%" height="100%" x="0" y="0" fill="none" stroke="none"/>






















<g class="currentLayer" style=""><title>Layer 1</title><circle style="" cx="309.2916666865349" cy="160.83700561523438" r="138.57000732421875" id="svg_1" class="selected" fill="#ffffff" fill-opacity="1"/><rect x="69.01599884033203" y="280.56298828125" transform="matrix(-0.7071,-0.7071,0.7071,-0.7071,-90.9987,701.6116) " style="fill:#59595A;" width="61.58599853515625" height="178.17799377441406" id="svg_2"/><rect x="137.9530029296875" y="292.3110046386719" transform="matrix(-0.7071,-0.7071,0.7071,-0.7071,75.4308,632.6729) " style="" width="61.58599853515625" height="16.805999755859375" id="svg_3" class="" fill="#b80404" fill-opacity="1"/><rect x="0.07900000363588333" y="430.18701171875" transform="matrix(-0.7071,-0.7071,0.7071,-0.7071,-257.4281,770.5503) " style="" width="61.58599853515625" height="16.805999755859375" id="svg_4" class="" fill="#b80404" fill-opacity="1"/><path style="fill:#59595A;" d="M417.893,51.569c-29.186-29.187-67.992-45.26-109.268-45.26s-80.081,16.073-109.268,45.26  c-29.186,29.186-45.26,67.992-45.26,109.268c0,35.857,12.136,69.846,34.456,97.288l-25.259,25.259l22.785,22.785l25.259-25.259  c27.442,22.319,61.43,34.456,97.287,34.456c41.276,0,80.081-16.073,109.268-45.26c29.187-29.187,45.26-67.993,45.26-109.269  S447.08,80.755,417.893,51.569z M395.325,247.537c-23.158,23.158-53.949,35.912-86.7,35.913c-32.751,0-63.542-12.754-86.7-35.913  c-23.158-23.158-35.912-53.949-35.913-86.7c0-32.751,12.754-63.542,35.913-86.7c23.158-23.158,53.949-35.912,86.7-35.913  c32.751,0,63.542,12.754,86.7,35.913s35.912,53.949,35.913,86.7C431.238,193.588,418.484,224.379,395.325,247.537z" id="svg_10"/><path style="opacity:0.3;fill:#5B5B5F;enable-background:new    ;" d="M308.625,316.0316666865349 c41.276,0 80.081,-16.073 109.268,-45.26 s45.26,-67.992 45.26,-109.268 c0.0010000000000000002,-41.276 -16.073,-80.082 -45.26,-109.268 l-22.568,22.568 c23.158,23.158 35.912,53.949 35.913,86.7 c-0.0010000000000000002,32.751 -12.754,63.542 -35.913,86.7 c-23.158,23.158 -53.949,35.912 -86.7,35.913 c-32.751,0 -63.542,-12.754 -86.7,-35.913 l-20.923000000000002,20.923000000000002 l-1.645,1.645 l-24.671,24.671 l-5.942,5.942 L24.927,445.2016666865349 l21.774,21.774 l11.883000000000001,-11.883000000000001 l125.993,-125.993 l11.883000000000001,-11.883000000000001 l-10.382,-10.382 l25.259,-25.259 C238.78,303.8946666865349 272.768,316.0316666865349 308.625,316.0316666865349 z" id="svg_11" class=""/><g id="svg_12">
</g><g id="svg_13">
</g><g id="svg_14">
</g><g id="svg_15">
</g><g id="svg_16">
</g><g id="svg_17">
</g><g id="svg_18">
</g><g id="svg_19">
</g><g id="svg_20">
</g><g id="svg_21">
</g><g id="svg_22">
</g><g id="svg_23">
</g><g id="svg_24">
</g><g id="svg_25">
</g><g id="svg_26">
</g></g></svg>