<svg xmlns="http://www.w3.org/2000/svg" enable-background="new 0 0 140 140" height="140" width="140" style=""><rect id="backgroundrect" width="100%" height="100%" x="0" y="0" fill="none" stroke="none"/><g class="currentLayer" style=""><title>Layer 1</title><circle cx="70" cy="70" fill="#b80404" r="64" id="svg_1" class="selected" fill-opacity="1"/><path d="m96.3154602 42.9409828c-7.0800171-1.0899658-16.2700195-1.75-26.3200073-1.75-22.3900146 0-40.539978 3.2700195-40.539978 7.2999878 0 .4400024.2099609.8699951.6199951 1.2800293v.0100098l31.1999512 41.8599892v23.5999756l18.0722656 18.072258c30.5067749-4.4658203 54.0060425-30.4502487 54.6204224-62.0494919l-23.9926758-23.9927406c-1.6099854-1.7299806-6.5799561-3.2500001-13.6599732-4.3300172z" opacity=".1" id="svg_2"/><path d="m110.0051956 49.6788101-31.2000732 41.8600464v15.4699707l-9.5998535 4.5100098-4.1101075 1.9299927-3.8199463 1.789978v-23.5899658l-31.2000713-41.8699952z" fill="#e6e9ef" id="svg_3"/><path d="m45.7352982 50.5888443h-5.8500977l25.1500244 41.0599976.0599365 21.7999878 4.1101075-1.9299927v-19.8699951z" fill="#fff" opacity=".25" id="svg_4"/><path d="m110.54776 48.4948578c0 1.1225357-1.4230194 2.1920471-3.9597397 3.1465912-6.5230026 2.4571991-20.4528809 4.1542244-36.5924454 4.1542244-16.1307182 0-30.0605927-1.6970253-36.5924416-4.1542244-2.5366096-.9545441-3.9508972-2.0240555-3.9508972-3.1465912 0-4.030468 18.1548271-7.3008156 40.5433388-7.3008156 22.3973618 0 40.5521851 3.2703476 40.5521851 7.3008156z" fill="#d9dde6" id="svg_5"/><path d="m38.5714722 52.3919067c3.6497192.93927 7.383728 1.2888184 11.1433105 1.3914185 6.0567627.1654053 12.0632935.7175903 18.1148682.9224854 12.7849121.4328003 25.8909302-.3994751 38.289978-3.7267456-2.7946167-1.9793701-17.901001-3.4918213-36.1240234-3.4918213-18.9078369 0-34.463623 1.6281128-36.3893433 3.7167358 1.7125244.1628418 3.2825317.7549438 4.96521 1.1879272z" fill="#c6cbd4" id="svg_6"/><path d="m69.995575 41.1940422c-22.3885117 0-40.5433388 3.2703476-40.5433388 7.3008156 0 1.1225357 1.4142876 2.1920471 3.9508972 3.1465912 6.5318489 2.4571991 20.4617233 4.1542244 36.5924416 4.1542244 16.1395645 0 30.0694427-1.6970253 36.5924454-4.1542244 2.5367203-.9545441 3.9597397-2.0240555 3.9597397-3.1465912-.0000001-4.030468-18.1548234-7.3008156-40.5521851-7.3008156zm35.9737777 8.7945671c-6.5231094 2.4571953-20.6385651 4.0393143-35.9737778 4.0393143-15.3263588 0-29.4418182-1.582119-35.973774-4.0393143-1.8825493-.7070923-2.5277615-1.2727852-2.7398834-1.5113945 1.5113907-2.0505943 15.2114525-5.5154228 38.7136574-5.5154228s37.2022705 3.4648285 38.7225037 5.5154228c-.21212.2386093-.8661804.8043022-2.7487259 1.5113945z" fill="#e6e9ef" id="svg_7"/></g></svg>