<svg height="512pt" viewBox="-41 0 512 512.001" width="512pt" xmlns="http://www.w3.org/2000/svg"><path d="m67.078125 0h-21.390625c-3.558594 0-6.714844 2.289062-7.820312 5.671875l-27.394532 83.789063v68.675781h91.820313v-68.675781l-27.390625-83.789063c-1.109375-3.382813-4.265625-5.671875-7.824219-5.671875zm0 0" fill="#fc7371"/><path d="m37.867188 5.671875-27.394532 83.789063h91.820313l-27.390625-83.789063c-1.109375-3.382813-4.265625-5.671875-7.824219-5.671875h-21.390625c-3.558594 0-6.714844 2.289062-7.820312 5.671875zm0 0" fill="#d84444"/><path d="m103.128906 512h-93.492187c-5.320313 0-9.636719-4.3125-9.636719-9.636719v-365.105469c0-5.324218 4.316406-9.636718 9.636719-9.636718h93.492187c5.324219 0 9.636719 4.3125 9.636719 9.636718v365.105469c0 5.324219-4.3125 9.636719-9.636719 9.636719zm0 0" fill="#fc7371"/><path d="m103.128906 127.621094h-52.328125v384.378906h52.328125c5.324219 0 9.636719-4.3125 9.636719-9.636719v-365.105469c0-5.324218-4.3125-9.636718-9.636719-9.636718zm0 0" fill="#d84444"/><path d="m112.765625 137.257812c0-5.324218-4.3125-9.636718-9.636719-9.636718h-93.492187c-5.320313 0-9.636719 4.3125-9.636719 9.636718v43.15625h112.765625zm0 0" fill="#45748c"/><path d="m103.128906 127.621094h-52.328125v52.792968h61.964844v-43.15625c0-5.324218-4.3125-9.636718-9.636719-9.636718zm0 0" fill="#236575"/><path d="m0 459.207031v43.15625c0 5.324219 4.316406 9.636719 9.636719 9.636719h93.492187c5.324219 0 9.636719-4.3125 9.636719-9.636719v-43.15625zm0 0" fill="#45748c"/><path d="m112.765625 502.363281v-43.15625h-61.964844v52.792969h52.328125c5.324219 0 9.636719-4.3125 9.636719-9.636719zm0 0" fill="#236575"/><path d="m80.746094 314.3125c0-36.5625-10.90625-66.199219-24.363282-66.199219-13.457031 0-24.363281 29.636719-24.363281 66.199219s10.90625 66.199219 24.363281 66.199219c13.457032 0 24.363282-29.636719 24.363282-66.199219zm0 0" fill="#f3e8d6"/><path d="m225.714844 0h-21.394532c-3.558593 0-6.714843 2.289062-7.820312 5.671875l-27.390625 83.789063v68.675781h91.816406v-68.675781l-27.390625-83.789063c-1.105468-3.382813-4.261718-5.671875-7.820312-5.671875zm0 0" fill="#ffe169"/><path d="m196.5 5.671875-27.390625 83.789063h91.816406l-27.390625-83.789063c-1.105468-3.382813-4.261718-5.671875-7.820312-5.671875h-21.394532c-3.558593 0-6.714843 2.289062-7.820312 5.671875zm0 0" fill="#efb525"/><path d="m261.765625 512h-93.496094c-5.320312 0-9.636719-4.3125-9.636719-9.636719v-365.105469c0-5.324218 4.316407-9.636718 9.636719-9.636718h93.496094c5.320313 0 9.636719 4.3125 9.636719 9.636718v365.105469c-.003906 5.324219-4.316406 9.636719-9.636719 9.636719zm0 0" fill="#ffe169"/><path d="m261.765625 127.621094h-52.328125v384.378906h52.328125c5.320313 0 9.636719-4.3125 9.636719-9.636719v-365.105469c0-5.324218-4.316406-9.636718-9.636719-9.636718zm0 0" fill="#efb525"/><path d="m158.636719 459.207031v43.15625c0 5.324219 4.3125 9.636719 9.636719 9.636719h93.492187c5.320313 0 9.636719-4.3125 9.636719-9.636719v-43.15625zm0 0" fill="#45748c"/><path d="m271.398438 137.257812c0-5.324218-4.3125-9.636718-9.636719-9.636718h-93.492188c-5.320312 0-9.636719 4.3125-9.636719 9.636718v43.15625h112.765626zm0 0" fill="#45748c"/><path d="m271.398438 502.363281v-43.15625h-61.960938v52.792969h52.328125c5.320313 0 9.632813-4.3125 9.632813-9.636719zm0 0" fill="#236575"/><path d="m271.398438 180.414062v-43.15625c0-5.324218-4.3125-9.636718-9.636719-9.636718h-52.324219v52.792968zm0 0" fill="#236575"/><path d="m239.382812 314.3125c0-36.5625-10.910156-66.199219-24.367187-66.199219-13.453125 0-24.363281 29.636719-24.363281 66.199219s10.910156 66.199219 24.363281 66.199219c13.457031 0 24.367187-29.636719 24.367187-66.199219zm0 0" fill="#f3e8d6"/><path d="m384.347656 0h-21.390625c-3.558593 0-6.714843 2.289062-7.820312 5.671875l-27.390625 83.789063v68.675781h91.816406v-68.675781l-27.390625-83.789063c-1.109375-3.382813-4.265625-5.671875-7.824219-5.671875zm0 0" fill="#32d692"/><path d="m355.132812 5.671875-27.390624 83.789063h91.816406l-27.390625-83.789063c-1.105469-3.382813-4.261719-5.671875-7.820313-5.671875h-21.390625c-3.558593 0-6.714843 2.289062-7.824219 5.671875zm0 0" fill="#21c17e"/><path d="m420.398438 512h-93.492188c-5.324219 0-9.636719-4.3125-9.636719-9.636719v-365.105469c0-5.324218 4.3125-9.636718 9.636719-9.636718h93.492188c5.320312 0 9.636718 4.3125 9.636718 9.636718v365.105469c0 5.324219-4.316406 9.636719-9.636718 9.636719zm0 0" fill="#32d692"/><path d="m430.035156 502.363281v-365.105469c0-5.324218-4.316406-9.636718-9.636718-9.636718h-52.328126v384.378906h52.328126c5.320312 0 9.636718-4.3125 9.636718-9.636719zm0 0" fill="#21c17e"/><path d="m430.035156 137.257812c0-5.324218-4.316406-9.636718-9.636718-9.636718h-93.492188c-5.324219 0-9.636719 4.3125-9.636719 9.636718v43.15625h112.765625zm0 0" fill="#45748c"/><path d="m430.035156 180.414062v-43.15625c0-5.324218-4.316406-9.636718-9.636718-9.636718h-52.328126v52.792968zm0 0" fill="#236575"/><path d="m317.269531 459.207031v43.15625c0 5.324219 4.3125 9.636719 9.636719 9.636719h93.492188c5.324218 0 9.636718-4.3125 9.636718-9.636719v-43.15625zm0 0" fill="#45748c"/><path d="m430.035156 502.363281v-43.15625h-61.964844v52.792969h52.328126c5.320312 0 9.636718-4.3125 9.636718-9.636719zm0 0" fill="#236575"/><path d="m398.015625 314.3125c0-36.5625-10.90625-66.199219-24.363281-66.199219-13.457032 0-24.363282 29.636719-24.363282 66.199219s10.90625 66.199219 24.363282 66.199219c13.457031 0 24.363281-29.636719 24.363281-66.199219zm0 0" fill="#f3e8d6"/></svg>