<svg height="512" viewBox="0 0 60 60" width="512" xmlns="http://www.w3.org/2000/svg"><g id="Page-1" fill="none" fill-rule="evenodd"><g id="039---Grid" fill-rule="nonzero"><rect id="Rectangle-path" fill="#e8edfc" height="58" rx="2" width="58" x="1" y="1"/><path id="Shape" d="m57 1h-3c1.1045695 0 2 .8954305 2 2v54c0 1.1045695-.8954305 2-2 2h3c1.1045695 0 2-.8954305 2-2v-54c0-1.1045695-.8954305-2-2-2z" fill="#cad9fc"/><path id="Shape" d="m3 59h3c-1.1045695 0-2-.8954305-2-2v-54c0-1.1045695.8954305-2 2-2h41.48c-7.56 0-20.906 0-44.48 0-1.1045695 0-2 .8954305-2 2v54c0 1.1045695.8954305 2 2 2z" fill="#fff"/><path id="Rectangle-path" d="m0 3h2v8h-2z" fill="#fff"/><g fill="#428dff"><path id="Shape" d="m5 11c.55228475 0 1-.4477153 1-1v-4h4c.5522847 0 1-.44771525 1-1s-.4477153-1-1-1h-5c-.55228475 0-1 .44771525-1 1v5c0 .5522847.44771525 1 1 1z"/><path id="Shape" d="m55 4h-5c-.5522847 0-1 .44771525-1 1s.4477153 1 1 1h4v4c0 .5522847.4477153 1 1 1s1-.4477153 1-1v-5c0-.55228475-.4477153-1-1-1z"/><path id="Shape" d="m10 54h-4v-4c0-.5522847-.44771525-1-1-1s-1 .4477153-1 1v5c0 .5522847.44771525 1 1 1h5c.5522847 0 1-.4477153 1-1s-.4477153-1-1-1z"/><path id="Shape" d="m55 49c-.5522847 0-1 .4477153-1 1v4h-4c-.5522847 0-1 .4477153-1 1s.4477153 1 1 1h5c.5522847 0 1-.4477153 1-1v-5c0-.5522847-.4477153-1-1-1z"/><path id="Shape" d="m51 49v-38c0-1.1045695-.8954305-2-2-2h-38c-1.1045695 0-2 .8954305-2 2v38c0 1.1045695.8954305 2 2 2h38c1.1045695 0 2-.8954305 2-2zm-10-38h8v8h-8zm0 10h8v8h-8zm0 10h8v8h-8zm-22 18h-8v-8h8zm0-10h-8v-8h8zm0-10h-8v-8h8zm0-10h-8v-8h8zm10 30h-8v-8h8zm0-10h-8v-8h8zm0-10h-8v-8h8zm0-10h-8v-8h8zm10 30h-8v-8h8zm0-10h-8v-8h8zm0-10h-8v-8h8zm0-10h-8v-8h8zm2 22h8v8h-8z"/><path id="Shape" d="m1.02 8c-.55228475.00276142-1.00223858-.44271525-1.005-.995s.44271525-1.00223858.995-1.005h.01c.55228475 0 1 .44771525 1 1s-.44771525 1-1 1z"/><path id="Shape" d="m57 0h-54c-1.65685425 0-3 1.34314575-3 3 0 .35726559.19059892.68739261.5.8660254.30940108.1786328.69059892.1786328 1 0 .30940108-.17863279.5-.50875981.5-.8660254 0-.55228475.44771525-1 1-1h54c.5522847 0 1 .44771525 1 1v54c0 .5522847-.4477153 1-1 1h-54c-.55228475 0-1-.4477153-1-1v-46c0-.5522847-.44771525-1-1-1s-1 .4477153-1 1v46c0 1.6568542 1.34314575 3 3 3h54c1.6568542 0 3-1.3431458 3-3v-54c0-1.65685425-1.3431458-3-3-3z"/></g></g></g></svg>