<?xml version="1.0" encoding="iso-8859-1"?>
<!-- Generator: Adobe Illustrator 19.0.0, SVG Export Plug-In . SVG Version: 6.00 Build 0)  -->
<svg version="1.1" id="Capa_1" xmlns="http://www.w3.org/2000/svg" xmlns:xlink="http://www.w3.org/1999/xlink" x="0px" y="0px"
	 viewBox="0 0 512.001 512.001" style="enable-background:new 0 0 512.001 512.001;" xml:space="preserve">
<path style="fill:#FF9D4A;" d="M289.587,210.396c-53.784-7.791-90.655-36.018-107.472-50.908l-11.313,11.313l-11.313,11.312
	c14.889,16.817,43.116,53.688,50.908,107.472c3.185,21.986,2.167,41.358,0,56.565l101.815,45.252l39.595-39.595l0.001-0.001
	l39.595-39.595l-45.252-101.815C330.945,212.563,311.573,213.581,289.587,210.396z M295.244,295.242
	c-9.372,9.372-24.567,9.372-33.938,0c-9.372-9.372-9.372-24.567,0-33.938c9.372-9.372,24.567-9.372,33.938,0
	C304.615,270.676,304.615,285.871,295.244,295.242z"/>
<path style="fill:#F48A16;" d="M232.395,328.152c2.167-15.207-0.045-37.795-3.912-59.672c-6.568-37.161-40.922-79.692-57.1-98.262
	l-0.583,0.583l-11.312,11.312c14.889,16.817,43.116,53.688,50.908,107.472c3.186,21.986,2.167,41.358,0,56.565l101.815,45.252
	l16.53-16.53L232.395,328.152z"/>
<rect x="352.364" y="328.376" transform="matrix(-0.7071 0.7071 -0.7071 -0.7071 985.8741 408.3769)" style="fill:#95868A;" width="111.991" height="159.987"/>
<rect x="297.081" y="427.945" transform="matrix(0.7071 0.7071 -0.7071 0.7071 421.3437 -137.8525)" style="fill:#847277;" width="159.987" height="23.471"/>
<path d="M509.835,420.038l-51.216-51.215c-2.929-2.928-7.676-2.93-10.606,0c-2.929,2.929-2.929,7.677,0,10.605l45.914,45.913
	l-68.585,68.584L322.819,391.402l68.584-68.585l27.361,27.361c2.93,2.929,7.677,2.929,10.606,0s2.929-7.677,0-10.605l-31.681-31.681
	L353.003,207.35c-1.361-3.064-4.591-4.854-7.911-4.379c-18.209,2.596-36.522,2.597-54.431,0.002
	c-45.725-6.625-79.856-28.713-101.087-46.936c11.073-11.183,22.024-22.777,32.902-34.295
	c51.84-54.893,100.805-106.743,152.603-106.743c14.107,0,24.693,3.937,31.466,11.701c11.967,13.72,9.134,35.536,9.106,35.735
	c-0.586,4.101,2.264,7.898,6.364,8.484c4.096,0.583,7.899-2.263,8.484-6.364c0.166-1.161,3.874-28.661-12.568-47.619
	C408.182,5.699,393.765,0,375.078,0c-26.439,0-54.177,11.613-84.795,35.504c-26.59,20.747-53.087,48.806-78.712,75.941
	c-52.249,55.327-106.276,112.538-164.074,112.538c-13.526,0-22.713-5.054-28.085-15.449c-4.274-8.273-4.411-16.927-4.413-17.078
	c-0.015-4.129-3.368-7.47-7.499-7.47c-4.143,0-7.499,3.358-7.499,7.499c0,0.48,0.065,11.901,5.792,23.352
	c5.508,11.014,17.213,24.144,41.705,24.144c38.283,0,73.735-21.153,107.65-50.441c18.388,21.148,41.095,55.644,47.828,102.12
	c2.594,17.907,2.593,36.219-0.002,54.432c-0.474,3.32,1.314,6.549,4.379,7.911l100.543,44.686l112.144,112.144
	c2.89,2.89,7.716,2.889,10.606,0l79.19-79.19C512.722,427.756,512.722,422.925,509.835,420.038z M217.819,288.511
	c-6.861-47.352-29.039-83.077-48.114-106.007l1.097-1.097l80.54,80.54c-7.342,12.114-5.794,28.145,4.661,38.598
	c6.141,6.141,14.206,9.21,22.271,9.21c8.065,0,16.132-3.07,22.271-9.21c0.001,0,0.001,0,0.001,0
	c12.28-12.281,12.28-32.264-0.001-44.545c-10.453-10.453-26.483-12.002-38.598-4.66l-80.541-80.541l1.096-1.096
	c22.933,19.076,58.658,41.254,106.008,48.113c17.471,2.532,35.292,2.773,53.056,0.729l40.891,92.003l-71.906,71.907l-92.004-40.891
	C220.593,323.802,220.35,305.982,217.819,288.511z M266.608,266.606c0.001-0.002,0.003-0.003,0.004-0.005
	c3.217-3.213,7.438-4.82,11.662-4.82c4.225,0,8.45,1.608,11.666,4.825c6.434,6.434,6.434,16.9,0,23.333h0.001
	c-6.434,6.433-16.9,6.434-23.333,0c-6.432-6.432-6.433-16.895-0.005-23.328C266.605,266.61,266.607,266.608,266.608,266.606z"/>
<g>
</g>
<g>
</g>
<g>
</g>
<g>
</g>
<g>
</g>
<g>
</g>
<g>
</g>
<g>
</g>
<g>
</g>
<g>
</g>
<g>
</g>
<g>
</g>
<g>
</g>
<g>
</g>
<g>
</g>
</svg>
