<svg xmlns="http://www.w3.org/2000/svg" xmlns:xlink="http://www.w3.org/1999/xlink" version="1.1" style="" xml:space="preserve" width="511.999" height="511.999"><rect id="backgroundrect" width="100%" height="100%" x="0" y="0" fill="none" stroke="none"/>



















<g class="currentLayer" style=""><title>Layer 1</title><path style="" d="M427.534,73.084l-224.51,224.51c-6.051,6.051-15.863,6.051-21.914,0l-96.645-96.645L8.099,277.313  l145.785,145.785c10.127,10.127,23.862,15.816,38.183,15.816l0,0c14.32,0,28.057-5.69,38.182-15.816l273.65-273.65L427.534,73.084z" id="svg_1" class="selected" fill="#b80404" fill-opacity="1"/><g style="opacity:0.1;" id="svg_2" class="">
	<path d="M478.646,124.196L189.754,413.087c-7.993,7.992-18.043,13.442-28.902,15.872c9.066,6.425,19.956,9.955,31.215,9.955l0,0   c14.32,0,28.057-5.69,38.182-15.816l273.65-273.65L478.646,124.196z" id="svg_3"/>
</g><path d="M192.068,447.014c-16.587,0-32.182-6.459-43.912-18.189L2.372,283.04c-3.163-3.163-3.163-8.292,0-11.454l76.366-76.366  c3.164-3.163,8.292-3.163,11.455,0l28.668,28.667c3.163,3.163,3.163,8.292,0,11.454c-3.165,3.163-8.293,3.162-11.455,0l-22.94-22.94  l-64.911,64.911l140.058,140.058c8.669,8.669,20.195,13.443,32.456,13.443c12.26,0,23.785-4.775,32.456-13.443l186.951-186.952  c3.163-3.163,8.291-3.164,11.455,0c3.163,3.163,3.163,8.292,0,11.454L235.979,428.826  C224.248,440.555,208.653,447.014,192.068,447.014z" id="svg_4"/><path d="M192.068,310.232c-6.303,0-12.228-2.454-16.684-6.911l-45.068-45.068c-3.163-3.163-3.163-8.292,0-11.454  c3.164-3.163,8.292-3.163,11.455,0l45.068,45.068c1.396,1.396,3.254,2.165,5.229,2.165s3.833-0.769,5.23-2.166L421.806,67.357  c3.164-3.163,8.292-3.163,11.455,0l76.366,76.366c1.518,1.518,2.372,3.579,2.372,5.727s-0.853,4.209-2.372,5.727l-63.787,63.787  c-3.164,3.163-8.292,3.162-11.455,0c-3.163-3.163-3.163-8.292,0-11.454l58.061-58.06l-64.91-64.91L208.752,303.321  C204.295,307.777,198.369,310.232,192.068,310.232z" id="svg_5"/><g id="svg_6">
</g><g id="svg_7">
</g><g id="svg_8">
</g><g id="svg_9">
</g><g id="svg_10">
</g><g id="svg_11">
</g><g id="svg_12">
</g><g id="svg_13">
</g><g id="svg_14">
</g><g id="svg_15">
</g><g id="svg_16">
</g><g id="svg_17">
</g><g id="svg_18">
</g><g id="svg_19">
</g><g id="svg_20">
</g></g></svg>