<svg xmlns="http://www.w3.org/2000/svg" height="511" width="511.9994"><rect id="backgroundrect" width="100%" height="100%" x="0" y="0" fill="none" stroke="none"/><g class="currentLayer" style=""><title>Layer 1</title><path d="m72.09375,134.01162869896316 c0,-14.429688 11.699219,-26.125 26.125,-26.125 h316.324219 c14.429687,0 26.125,11.699218 26.125,26.125 v86.59375 h31.136719 v-124.304688 c0,-17.8125 -14.441407,-32.253906 -32.257813,-32.253906 h-256.605469 c-7.402344,0 -14.144531,-4.269531 -17.308594,-10.960938 l-15.285156,-32.308593 c-2.800781,-5.925781 -8.765625,-9.703125 -15.320312,-9.703125 h-76.9375 c-9.363282,0 -16.953125,7.589844 -16.953125,16.953125 v192.574219 h30.957031 zm0,0 " fill="#b80404" id="svg_1" class="" fill-opacity="1"/><path d="m483.457031 220.027344h-454.914062c-11.636719 0-20.398438 10.597656-18.210938 22.027344l28.933594 151.226562c1.085937 5.675781 6.050781 9.78125 11.832031 9.78125h410.691406c5.804688 0 10.785157-4.140625 11.84375-9.847656l28.054688-151.265625c2.113281-11.398438-6.636719-21.921875-18.230469-21.921875zm0 0" fill="#b80404" id="svg_2" class="selected" fill-opacity="1"/><path d="m414.542969 107.308594h-316.320313c-14.429687 0-26.125 11.695312-26.125 26.125v86.59375h30.066406v-52.125c0-8.949219 7.257813-16.207032 16.207032-16.207032h274.78125c8.953125 0 16.210937 7.257813 16.210937 16.207032v52.125h31.308594v-86.59375c-.003906-14.429688-11.699219-26.125-26.128906-26.125zm0 0" fill="#86a4b3" id="svg_3"/><path d="m393.152344 151.695312h-274.78125c-8.953125 0-16.207032 7.257813-16.207032 16.210938v52.121094h307.199219v-52.121094c0-8.953125-7.257812-16.210938-16.210937-16.210938zm0 0" fill="#d6effb" id="svg_4"/><path d="m505.40625 220.328125c-5.4375-6.542969-13.441406-10.296875-21.953125-10.296875h-1.648437v-114.3125c0-23.296875-18.953126-42.25-42.25-42.25h-256.617188c-3.515625 0-6.761719-2.058594-8.269531-5.234375l-15.28125-32.308594c-4.429688-9.371093-13.992188-15.425781-24.359375-15.425781h-76.941406c-14.859376 0-26.949219 12.089844-26.949219 26.949219v182.582031h-2.589844c-8.542969 0-16.5625 3.777344-22.003906 10.359375-5.4375 6.578125-7.636719 15.160156-6.027344 23.542969l28.929687 151.242187c1.992188 10.367188 11.097657 17.890625 21.652344 17.890625h410.683594c10.625 0 19.746094-7.582031 21.683594-18.027344l28.050781-151.257812c1.554687-8.363281-.671875-16.910156-6.109375-23.453125zm-454.269531-192.878906c0-3.832031 3.117187-6.953125 6.949219-6.953125h76.941406c2.675781 0 5.140625 1.5625 6.28125 3.976562l15.28125 32.320313c4.804687 10.128906 15.144531 16.675781 26.347656 16.675781h256.617188c12.265624 0 22.25 9.980469 22.25 22.25v114.3125h-11.132813v-76.597656c0-19.917969-16.207031-36.125-36.128906-36.125h-316.320313c-19.921875 0-36.125 16.207031-36.125 36.125v76.597656h-10.960937zm348.226562 182.578125h-287.199219v-42.121094c0-3.425781 2.785157-6.210938 6.207032-6.210938h274.78125c3.425781 0 6.207031 2.785157 6.207031 6.210938v42.121094zm31.304688 0h-11.304688v-42.121094c0-14.453125-11.757812-26.210938-26.210937-26.210938h-274.78125c-14.449219 0-26.207032 11.757813-26.207032 26.210938v42.121094h-10.070312v-76.59375c0-8.890625 7.234375-16.125 16.125-16.125h316.324219c8.890625 0 16.125 7.234375 16.125 16.125zm61.183593 30.097656v.003906l-28.050781 151.261719c-.179687.96875-1.027343 1.675781-2.019531 1.675781h-410.683594c-.980468 0-1.824218-.703125-2.007812-1.660156l-28.929688-151.234375c-.660156-3.433594.84375-5.886719 1.800782-7.039063.957031-1.160156 3.082031-3.101562 6.585937-3.101562h454.90625c3.492187 0 5.617187 1.933594 6.574219 3.082031.953125 1.148438 2.460937 3.585938 1.824218 7.011719zm0 0" id="svg_5"/><path d="m318.414062 177.902344h-178.25c-5.523437 0-10 4.476562-10 10 0 5.523437 4.476563 10 10 10h178.25c5.523438 0 10-4.476563 10-10 0-5.523438-4.476562-10-10-10zm0 0" id="svg_6"/><path d="m365.972656 177.902344c-5.523437 0-10 4.476562-10 10 0 5.523437 4.476563 10 10 10h.027344c5.523438 0 9.984375-4.476563 9.984375-10 0-5.523438-4.488281-10-10.011719-10zm0 0" id="svg_7"/></g></svg>