<svg xmlns="http://www.w3.org/2000/svg" xmlns:xlink="http://www.w3.org/1999/xlink" version="1.1" style="enable-background:new 0 0 48 48;" xml:space="preserve" width="48" height="48"><rect id="backgroundrect" width="100%" height="100%" x="0" y="0" fill="none" stroke="none"/>






<g class="currentLayer" style=""><title>Layer 1</title><polygon style="" points="42,42 6,42 6,6 37,6 42,11 " id="svg_1" class="" fill="#b80404" fill-opacity="1"/><path style="fill:#FFFFFF;" d="M39,39c0,0.553-0.447,1-1,1H10c-0.553,0-1-0.447-1-1V25c0-0.553,0.447-1,1-1h28c0.553,0,1,0.447,1,1  V39z" id="svg_2"/><g id="svg_3">
	<rect x="13" y="31" style="fill:#CFD8DC;" width="22" height="2" id="svg_4"/>
	<rect x="13" y="27" style="fill:#CFD8DC;" width="22" height="2" id="svg_5"/>
	<rect x="13" y="35" style="fill:#CFD8DC;" width="22" height="2" id="svg_6"/>
</g><path style="fill:#2980B9;" d="M9,6v10c0,1.104,0.896,2,2,2h15c1.104,0,2-0.896,2-2V6H9z" id="svg_7" class=""/><path style="fill:#B0BEC5;" d="M15,6v10c0,1.104,0.896,2,2,2h15c1.104,0,2-0.896,2-2V6H15z" id="svg_8" class=""/><rect x="26" y="8" style="fill:#263238;" width="4" height="8" id="svg_9"/></g></svg>